<svg id="Capa_1" enable-background="new 0 0 511.999 511.999" height="512" viewBox="0 0 511.999 511.999" width="512" xmlns="http://www.w3.org/2000/svg"><path d="m256 54.25c-8.284 0-15 6.716-15 15v113.25c0 8.284 6.716 15 15 15s15-6.716 15-15v-113.25c0-8.285-6.716-15-15-15z" fill="#5a5555"/><path d="m256 54.25v143.25c8.284 0 15-6.716 15-15v-113.25c0-8.285-6.716-15-15-15z" fill="#453f3f"/><path d="m511.949 214.298c-.866-29.486-12.976-57.246-34.1-78.167-21.12-20.918-48.994-32.765-78.488-33.358-.789-.016-1.578-.024-2.362-.024-35.864 0-69.323 16.585-91.051 44.75h-99.898c-21.728-28.164-55.186-44.748-91.05-44.75h-.015c-.782 0-1.562.008-2.348.024-29.493.594-57.367 12.44-78.487 33.358-21.123 20.921-33.233 48.681-34.1 78.167-1.075 36.596 15.106 71.096 43.582 93.628l11.001 95.982c3.518 30.695 29.47 53.842 60.365 53.842 30.896 0 56.848-23.147 60.366-53.842l9.396-81.978c.289-2.526 2.425-4.431 4.967-4.431h132.543c2.542 0 4.678 1.905 4.968 4.431l9.396 81.978c3.518 30.695 29.47 53.842 60.366 53.842s56.847-23.147 60.366-53.842l11.001-95.982c28.476-22.532 44.657-57.032 43.582-93.628z" fill="#f7f5f1"/><path d="m511.949 214.298c-.866-29.486-12.976-57.246-34.1-78.167-21.12-20.918-48.994-32.765-78.488-33.358-.789-.016-1.578-.024-2.362-.024-35.864 0-69.323 16.585-91.051 44.75h-49.948v170h66.271c2.542 0 4.678 1.905 4.968 4.431l9.396 81.978c3.518 30.695 29.47 53.842 60.366 53.842s56.847-23.147 60.366-53.842l11.001-95.982c28.475-22.532 44.656-57.032 43.581-93.628z" fill="#e4dfd9"/><path d="m397 202.75c-8.284 0-15-6.716-15-15v-10c0-8.284 6.716-15 15-15s15 6.716 15 15v10c0 8.284-6.716 15-15 15z" fill="#453f3f"/><path d="m397 272.75c-8.284 0-15-6.716-15-15v-10c0-8.284 6.716-15 15-15s15 6.716 15 15v10c0 8.284-6.716 15-15 15z" fill="#453f3f"/><path d="m437 232.75h-10c-8.284 0-15-6.716-15-15s6.716-15 15-15h10c8.284 0 15 6.716 15 15s-6.716 15-15 15z" fill="#453f3f"/><path d="m367 232.75h-10c-8.284 0-15-6.716-15-15s6.716-15 15-15h10c8.284 0 15 6.716 15 15s-6.716 15-15 15z" fill="#453f3f"/><g fill="#5a5555"><path d="m115 202.75c-8.284 0-15-6.716-15-15v-10c0-8.284 6.716-15 15-15s15 6.716 15 15v10c0 8.284-6.716 15-15 15z"/><path d="m115 272.75c-8.284 0-15-6.716-15-15v-10c0-8.284 6.716-15 15-15s15 6.716 15 15v10c0 8.284-6.716 15-15 15z"/><path d="m155 232.75h-10c-8.284 0-15-6.716-15-15s6.716-15 15-15h10c8.284 0 15 6.716 15 15s-6.716 15-15 15z"/><path d="m85 232.75h-10c-8.284 0-15-6.716-15-15s6.716-15 15-15h10c8.284 0 15 6.716 15 15s-6.716 15-15 15z"/><circle cx="187" cy="302.75" r="30"/></g><circle cx="325" cy="302.75" fill="#453f3f" r="30"/></svg>